<svg xmlns="http://www.w3.org/2000/svg" xmlns:xlink="http://www.w3.org/1999/xlink" width="16" height="16" viewBox="0 0 16 16" fill="none"><defs><rect id="path_0" x="0" y="0" width="16" height="16" /></defs><g opacity="1" transform="translate(0 0)  rotate(0 8 8)"><mask id="bg-mask-0" fill="white"><use xlink:href="#path_0"></use></mask><g mask="url(#bg-mask-0)" ><path id="分组 1" fill-rule="evenodd" style="fill:#383838" transform="translate(8.873119041687105e-16 0.4154068292682957)  rotate(0 7.994236312096401 7.591999999999999)" opacity="1" d="M12.6027 8.41643C12.6227 8.41643 14.6027 9.35643 15.2027 12.3264C15.2427 12.5164 15.4027 12.6464 15.5927 12.6464C15.6127 12.6464 15.6427 12.6364 15.6727 12.6364C15.8827 12.5964 16.0227 12.3864 15.9827 12.1664C15.4727 9.66643 14.0827 8.43643 13.3727 7.94643C13.9827 7.08643 14.3627 5.84643 14.3627 4.58643C14.3627 3.03643 13.6927 1.57643 12.6227 0.776427C12.4527 0.646427 12.2027 0.676427 12.0727 0.856427C11.9427 1.03643 11.9727 1.27643 12.1527 1.41643C13.0127 2.05643 13.5627 3.30643 13.5627 4.58643C13.5627 5.83643 13.1427 7.08643 12.4827 7.77643C12.3927 7.87643 12.3627 8.00643 12.3827 8.12643C12.4127 8.25643 12.4927 8.35643 12.6027 8.41643Z M3.45 8.6C3.43 8.61 3.4 8.62 3.38 8.64C3.36 8.65 3.35 8.66 3.33 8.67C1.24 9.97 0 12.19 0 14.63C0 14.67 0 14.7 0 14.74L0.01 14.8C0.01 15.01 0.19 15.18 0.41 15.18L13.8 15.18C14.02 15.18 14.19 15.01 14.2 14.8L14.21 14.74C14.21 14.7 14.21 14.67 14.21 14.63C14.21 12.19 12.97 9.97 10.88 8.67C10.86 8.66 10.85 8.65 10.83 8.64C10.81 8.62 10.78 8.61 10.73 8.58C10.59 8.5 10.45 8.42 10.31 8.35L10.27 8.33C10.25 8.32 10.23 8.31 10.21 8.3C11.26 7.41 11.87 6.12 11.87 4.73C11.87 2.12 9.73 0 7.11 0C4.48 0 2.34 2.12 2.34 4.73C2.34 6.12 2.95 7.41 4 8.3C3.98 8.31 3.96 8.32 3.94 8.33L3.9 8.35C3.76 8.42 3.62 8.5 3.45 8.6Z M3.80322 9.32C1.99322 10.42 0.883216 12.31 0.803216 14.39L13.4032 14.39C13.3232 12.31 12.2132 10.43 10.4032 9.32C10.3932 9.32 10.3832 9.31 10.3732 9.3C10.3532 9.29 10.3332 9.28 10.3232 9.27C10.1932 9.2 10.0732 9.13 9.94322 9.07L9.80322 9C9.61322 8.9 9.44322 8.83 9.28322 8.77C9.13322 8.72 9.03322 8.59 9.02322 8.44C9.00322 8.29 9.08322 8.14 9.20322 8.06C10.3732 7.34 11.0732 6.09 11.0732 4.73C11.0732 2.56 9.29322 0.8 7.10322 0.8C4.92322 0.8 3.13322 2.56 3.13322 4.73C3.13322 6.09 3.83322 7.34 5.00322 8.06C5.13322 8.14 5.20322 8.29 5.19322 8.44C5.17322 8.59 5.07322 8.72 4.93322 8.77C4.77322 8.83 4.60322 8.9 4.40322 9L4.26322 9.07C4.13322 9.13 4.01322 9.2 3.88322 9.27C3.87322 9.28 3.85322 9.29 3.83322 9.3C3.82322 9.31 3.81322 9.31 3.80322 9.32Z " /></g></g></svg>