<svg xmlns="http://www.w3.org/2000/svg" xmlns:xlink="http://www.w3.org/1999/xlink" width="20" height="20" viewBox="0 0 20 20" fill="none"><defs><rect id="path_0" x="0" y="0" width="20" height="20" /></defs><g opacity="1" transform="translate(0 0)  rotate(0 10 10)"><mask id="bg-mask-0" fill="white"><use xlink:href="#path_0"></use></mask><g mask="url(#bg-mask-0)" ><path id="路径 1" fill-rule="evenodd" style="fill:#008B00" transform="translate(5.0625 16.25)  rotate(0 1.25 1.25)" opacity="1" d="M1.25,2.5C1.94,2.5 2.5,1.94 2.5,1.25C2.5,0.56 1.94,0 1.25,0C0.56,0 0,0.56 0,1.25C0,1.94 0.56,2.5 1.25,2.5Z " /><path id="路径 2" fill-rule="evenodd" style="fill:#008B00" transform="translate(15 16.25)  rotate(0 1.25 1.25)" opacity="1" d="M1.25,2.5C1.94,2.5 2.5,1.94 2.5,1.25C2.5,0.56 1.94,0 1.25,0C0.56,0 0,0.56 0,1.25C0,1.94 0.56,2.5 1.25,2.5Z " /><path id="路径 3" fill-rule="evenodd" style="fill:#008B00" transform="translate(1.25 1.25)  rotate(0 8.757812500000002 6.875)" opacity="1" d="M17.5,5.69C17.56,5.19 17.44,4.69 17.13,4.31C16.81,3.94 16.38,3.75 15.87,3.75L3.63,3.75L3.19,1.56C3.06,0.69 2.31,0 1.38,0L0.63,0C0.25,0 0,0.31 0,0.63C0,0.94 0.25,1.25 0.63,1.25L1.38,1.25C1.63,1.25 1.87,1.44 1.94,1.75L2.5,4.81L3.5,12.06C3.63,13 4.38,13.75 5.25,13.75L14.75,13.75C15.63,13.75 16.38,13.13 16.5,12.31L17.5,5.69Z " /></g></g></svg>