<svg xmlns="http://www.w3.org/2000/svg" xmlns:xlink="http://www.w3.org/1999/xlink" width="15.588175255797523" height="15.161481468750026" viewBox="0 0 15.588175255797523 15.161481468750026" fill="none"><defs><rect id="path_0" x="0" y="0" width="15.588175255797525" height="15.161481468750004" /></defs><g opacity="1" transform="translate(0 1.1368683772161603e-13)  rotate(0 7.7940876278987625 7.580740734375002)"><mask id="bg-mask-0" fill="white"><use xlink:href="#path_0"></use></mask><g mask="url(#bg-mask-0)" ><path id="路径 1" fill-rule="evenodd" style="fill:#383838" transform="translate(3.674074078125 6.005925910069504)  rotate(0 0.6311111093750006 0.6311111152777489)" opacity="1" d="M0.63,1.26C0.98,1.26 1.26,0.98 1.26,0.63C1.26,0.41 1.14,0.2 0.95,0.08C0.75,-0.03 0.51,-0.03 0.32,0.08C0.12,0.2 0,0.41 0,0.63C0,0.98 0.28,1.26 0.63,1.26Z " /><path id="路径 2" fill-rule="evenodd" style="fill:#383838" transform="translate(6.628148140624999 6.005925902257004)  rotate(0 0.6311111171875003 0.6311111230902489)" opacity="1" d="M0.63,1.26C0.98,1.26 1.26,0.98 1.26,0.63C1.26,0.41 1.14,0.2 0.95,0.08C0.75,-0.03 0.51,-0.03 0.32,0.08C0.12,0.2 0,0.41 0,0.63C0,0.98 0.28,1.26 0.63,1.26Z " /><path id="路径 3" fill-rule="evenodd" style="fill:#383838" transform="translate(9.58222221875 6.005925921875001)  rotate(0 0.6311111093750004 0.6311111093750004)" opacity="1" d="M0.63,1.26C0.98,1.26 1.26,0.98 1.26,0.63C1.26,0.28 0.98,0 0.63,0C0.28,0 0,0.28 0,0.63C0,0.98 0.28,1.26 0.63,1.26Z " /><path id="分组 1" fill-rule="evenodd" style="fill:#383838" transform="translate(0 0)  rotate(0 7.2592592578125 6.9940740703125)" opacity="1" d="M7.26 0C3.26 0 0 2.87 0 6.39C0 8.4 1.17 10.43 2.96 11.54C2.96 11.74 2.95 12.03 2.94 12.25C2.89 13.28 2.87 13.75 3.36 13.94C3.44 13.97 3.51 13.99 3.59 13.99C3.88 13.99 4.24 13.77 5.17 13.21C5.45 13.04 5.84 12.8 6.04 12.7C6.44 12.76 6.85 12.79 7.26 12.79C11.26 12.79 14.52 9.92 14.52 6.39C14.52 2.87 11.26 0 7.26 0Z M4.11519 12.4581L4.55519 12.1881C5.42519 11.6681 5.66518 11.5281 5.89519 11.4981C5.95518 11.4881 6.01519 11.4981 6.07518 11.4981C6.46519 11.5681 6.86518 11.5981 7.26519 11.5981C10.6152 11.5981 13.3352 9.26815 13.3352 6.39815C13.3352 3.51815 10.6052 1.18815 7.25519 1.18815C3.91519 1.18815 1.18519 3.52815 1.18519 6.39815C1.18519 8.07815 2.22519 9.78815 3.78519 10.6481C4.18519 10.8481 4.17519 11.2781 4.12519 12.3081C4.12519 12.3481 4.11519 12.4081 4.11519 12.4581Z " /><path  id="分组 1" style="stroke:#FFFFFF; stroke-width:0.2; stroke-opacity:1; stroke-dasharray:0 0" transform="translate(0 0)  rotate(0 7.2592592578125 6.9940740703125)" d="M7.26 0C3.26 0 0 2.87 0 6.39C0 8.4 1.17 10.43 2.96 11.54C2.96 11.74 2.95 12.03 2.94 12.25C2.89 13.28 2.87 13.75 3.36 13.94C3.44 13.97 3.51 13.99 3.59 13.99C3.88 13.99 4.24 13.77 5.17 13.21C5.45 13.04 5.84 12.8 6.04 12.7C6.44 12.76 6.85 12.79 7.26 12.79C11.26 12.79 14.52 9.92 14.52 6.39C14.52 2.87 11.26 0 7.26 0Z M4.11519 12.4581L4.55519 12.1881C5.42519 11.6681 5.66518 11.5281 5.89519 11.4981C5.95518 11.4881 6.01519 11.4981 6.07518 11.4981C6.46519 11.5681 6.86518 11.5981 7.26519 11.5981C10.6152 11.5981 13.3352 9.26815 13.3352 6.39815C13.3352 3.51815 10.6052 1.18815 7.25519 1.18815C3.91519 1.18815 1.18519 3.52815 1.18519 6.39815C1.18519 8.07815 2.22519 9.78815 3.78519 10.6481C4.18519 10.8481 4.17519 11.2781 4.12519 12.3081C4.12519 12.3481 4.11519 12.4081 4.11519 12.4581Z " /><path id="路径 7" fill-rule="evenodd" style="fill:#383838" transform="translate(6.8444444375 7.419259250000002)  rotate(0 4.3718654091487625 3.8711111093750015)" opacity="1" d="M8.09,0C7.99,0.62 7.79,1.2 7.51,1.75C7.54,1.92 7.56,2.09 7.56,2.26C7.56,3.32 7.07,4.24 6.15,4.9C6,5.01 5.91,5.19 5.91,5.37C5.9,5.61 5.9,5.87 5.89,6.11L5.22,5.67C5.12,5.61 5.01,5.57 4.89,5.57C4.84,5.57 4.78,5.58 4.72,5.6C4.3,5.73 3.9,5.78 3.4,5.78C3.04,5.78 2.69,5.74 2.35,5.67C1.71,5.82 1.03,5.9 0.34,5.9C0.23,5.9 0.11,5.89 0,5.89C0.92,6.56 2.11,6.97 3.4,6.97C3.91,6.97 4.35,6.92 4.79,6.81L6.08,7.64C6.17,7.71 6.29,7.74 6.4,7.74C7.02,7.74 7.04,7.19 7.07,6.28C7.08,6.06 7.08,5.84 7.08,5.67C8.16,4.8 8.74,3.6 8.74,2.25C8.75,1.44 8.51,0.67 8.09,0Z " /><path  id="路径 7" style="stroke:#FFFFFF; stroke-width:0.3; stroke-opacity:1; stroke-dasharray:0 0" transform="translate(6.8444444375 7.419259250000002)  rotate(0 4.3718654091487625 3.8711111093750015)" d="M8.09,0C7.99,0.62 7.79,1.2 7.51,1.75C7.54,1.92 7.56,2.09 7.56,2.26C7.56,3.32 7.07,4.24 6.15,4.9C6,5.01 5.91,5.19 5.91,5.37C5.9,5.61 5.9,5.87 5.89,6.11L5.22,5.67C5.12,5.61 5.01,5.57 4.89,5.57C4.84,5.57 4.78,5.58 4.72,5.6C4.3,5.73 3.9,5.78 3.4,5.78C3.04,5.78 2.69,5.74 2.35,5.67C1.71,5.82 1.03,5.9 0.34,5.9C0.23,5.9 0.11,5.89 0,5.89C0.92,6.56 2.11,6.97 3.4,6.97C3.91,6.97 4.35,6.92 4.79,6.81L6.08,7.64C6.17,7.71 6.29,7.74 6.4,7.74C7.02,7.74 7.04,7.19 7.07,6.28C7.08,6.06 7.08,5.84 7.08,5.67C8.16,4.8 8.74,3.6 8.74,2.25C8.75,1.44 8.51,0.67 8.09,0Z " /></g></g></svg>