<svg xmlns="http://www.w3.org/2000/svg" xmlns:xlink="http://www.w3.org/1999/xlink" width="16" height="16"
     viewBox="0 0 16 16" fill="none">
    <defs>
        <rect id="path_0" x="0" y="0" width="16" height="16"/>
    </defs>
    <g opacity="1" transform="translate(0 0)  rotate(0 8 8)">
        <mask id="bg-mask-0" fill="white">
            <use xlink:href="#path_0"></use>
        </mask>
        <g mask="url(#bg-mask-0)">
            <g opacity="1"
               transform="translate(0.9726801091124946 1.4500000000000002)  rotate(0 7.002319890887506 6.525)">
                <path id="路径 1" fill-rule="evenodd" style="fill:#383838"
                      transform="translate(0 0)  rotate(0 7.002319890887506 3.025)" opacity="1"
                      d="M0.83,5.95L6.73,1.15C6.88,1.05 7.18,1.05 7.33,1.15L13.18,5.85C13.38,6.05 13.68,6 13.88,5.8C14.08,5.6 14.03,5.25 13.83,5.1L7.93,0.3C7.43,-0.1 6.63,-0.1 6.08,0.3L0.18,5.15C-0.02,5.3 -0.07,5.65 0.13,5.85C0.23,6 0.38,6.05 0.53,6.05C0.63,6.05 0.73,6.05 0.83,5.95Z "/>
                <path id="路径 2" fill-rule="evenodd" style="fill:#383838"
                      transform="translate(1.0273198908875054 6.55)  rotate(0 6.025 3.25)" opacity="1"
                      d="M1.3,6.5L4.45,6.5C4.75,6.5 4.95,6.3 4.95,6L4.95,3.65C4.95,3.25 5.5,2.95 5.95,2.95C6.4,2.95 7,3.3 7,3.65L7,6C7,6.3 7.2,6.5 7.5,6.5L10.75,6.5C11.5,6.5 12,6 12.05,5.25L12.05,0.5C12.05,0.2 11.85,0 11.55,0C11.25,0 11.05,0.2 11.05,0.5L11.05,5.2C11.05,5.5 10.95,5.5 10.8,5.5L8.05,5.5L8.05,3.65C8.05,2.65 6.95,1.95 6,1.95C5.05,1.95 4,2.65 4,3.65L4,5.5L1.3,5.5C1.1,5.5 1,5.4 1,5.25L1,0.5C1,0.2 0.8,0 0.5,0C0.2,0 0,0.2 0,0.5L0,5.25C0,5.95 0.55,6.5 1.3,6.5Z "/>
            </g>
        </g>
    </g>
</svg>