<svg xmlns="http://www.w3.org/2000/svg" xmlns:xlink="http://www.w3.org/1999/xlink" width="20" height="20" viewBox="0 0 20 20" fill="none"><defs><rect id="path_0" x="0" y="0" width="20" height="20" /></defs><g opacity="1" transform="translate(0 0)  rotate(0 10 10)"><mask id="bg-mask-0" fill="white"><use xlink:href="#path_0"></use></mask><g mask="url(#bg-mask-0)" ><path id="路径 1" fill-rule="evenodd" style="fill:#DB2727" transform="translate(0.625 2.4999908743795807)  rotate(0 9.375 7.81250456281021)" opacity="1" d="M11.07,14.81L17.26,8.56L17.3,8.52C18.04,7.59 18.75,6.71 18.75,5C18.75,2.24 16.51,0 13.75,0C12.47,0 11.23,0.49 10.31,1.38C9.99,1.68 9.69,1.99 9.38,2.31L8.46,1.39C7.53,0.49 6.29,0 5,0C2.24,0 0,2.24 0,5C0,6.61 0.8,7.82 1.49,8.56L7.68,14.82C8.17,15.31 8.72,15.63 9.38,15.63C10.03,15.63 10.58,15.31 11.07,14.81Z " /></g></g></svg>