<svg xmlns="http://www.w3.org/2000/svg" width="83.72611204605403" height="83.95830078124999"
     viewBox="0 0 83.72611204605403 83.95830078124999" fill="none"><path id="分组 1" fill-rule="evenodd" style="fill:#FF5733" transform="translate(0 -3.552713678800501e-15)  rotate(0 41.86305602302701 41.979150390624994)" opacity="1" d="M78.54 83.13L60 64.58C53.54 69.79 45.42 73.12 36.46 73.12C16.46 73.12 0 56.67 0 36.67C0 16.67 16.46 0 36.46 0C56.46 0 72.92 16.46 72.92 36.46C72.92 45.42 69.79 53.75 64.38 60L82.92 78.54C83.96 79.79 83.96 81.88 83.13 83.13C82.5 83.75 81.67 83.96 80.83 83.96C80 83.96 79.17 83.75 78.54 83.13Z M36.46 6.4583C53.12 6.4583 66.67 19.9983 66.67 36.6683C66.67 53.3283 53.12 66.8783 36.46 66.8783C19.79 66.8783 6.25 53.3383 6.25 36.6683C6.25 19.9983 19.79 6.4583 36.46 6.4583Z " /></svg>