<svg xmlns="http://www.w3.org/2000/svg" xmlns:xlink="http://www.w3.org/1999/xlink" width="18" height="18" viewBox="0 0 18 18" fill="none"><defs><rect id="path_0" x="0" y="0" width="18" height="18" /></defs><g opacity="1" transform="translate(0 0)  rotate(0 9 9)"><mask id="bg-mask-0" fill="white"><use xlink:href="#path_0"></use></mask><g mask="url(#bg-mask-0)" ><path id="分组 1" fill-rule="evenodd" style="fill:#008B00" transform="translate(0 0)  rotate(0 9 9)" opacity="1" d="M14.1915 9.97558C14.2115 9.98559 16.4415 11.0856 17.1115 14.6056C17.1615 14.8356 17.3415 14.9856 17.5515 14.9856C17.5815 14.9856 17.6115 14.9856 17.6415 14.9756C17.8815 14.9256 18.0415 14.6856 17.9915 14.4256C17.4215 11.4556 15.8615 9.99559 15.0515 9.42559C15.7415 8.39559 16.1615 6.92559 16.1615 5.43559C16.1615 3.60559 15.4215 1.87559 14.2115 0.915586C14.0215 0.765586 13.7415 0.805586 13.5915 1.01559C13.4415 1.22559 13.4815 1.51559 13.6815 1.67559C14.6515 2.44559 15.2715 3.91559 15.2715 5.43559C15.2715 6.91559 14.7915 8.39559 14.0515 9.22558C13.9515 9.33559 13.9115 9.48559 13.9415 9.63559C13.9715 9.78559 14.0615 9.90559 14.1915 9.97558Z M3.89 10.19C3.86 10.2 3.83 10.22 3.81 10.24C3.79 10.25 3.77 10.26 3.75 10.28C1.4 11.82 0 14.45 0 17.34C0 17.39 0 17.43 0 17.48L0.01 17.54C0.01 17.8 0.21 18 0.46 18L15.54 18C15.78 18 15.98 17.8 15.99 17.54L15.99 17.48C16 17.43 16 17.39 16 17.34C16 14.45 14.6 11.82 12.25 10.28C12.23 10.27 12.21 10.25 12.19 10.24C12.16 10.22 12.14 10.2 12.08 10.18C11.93 10.08 11.77 9.99 11.61 9.9L11.56 9.87C11.54 9.86 11.52 9.85 11.5 9.84C12.68 8.79 13.36 7.26 13.36 5.6C13.36 2.51 10.95 0 8 0C5.04 0 2.64 2.51 2.64 5.6C2.64 7.26 3.32 8.79 4.5 9.84C4.48 9.85 4.46 9.87 4.44 9.88L4.39 9.9C4.23 9.99 4.07 10.08 3.89 10.19Z " /></g></g></svg>