<svg xmlns="http://www.w3.org/2000/svg" xmlns:xlink="http://www.w3.org/1999/xlink" width="16" height="16" viewBox="0 0 16 16" fill="none"><defs><rect id="path_0" x="0" y="0" width="16" height="16" /></defs><g opacity="1" transform="translate(0 0)  rotate(0 8 8)"><mask id="bg-mask-0" fill="white"><use xlink:href="#path_0"></use></mask><g mask="url(#bg-mask-0)" ><path id="路径 1" fill-rule="evenodd" style="fill:#383838" transform="translate(1 1)  rotate(0 7.006250000000001 5.5)" opacity="1" d="M3,3.7L2.55,1.25C2.45,0.55 1.85,0 1.1,0L0.5,0C0.2,0 0,0.25 0,0.5C0,0.75 0.2,1 0.5,1L1.1,1C1.3,1 1.5,1.15 1.55,1.4L2,3.85L2.8,9.65C2.9,10.4 3.5,11 4.2,11L11.8,11C12.5,11 13.1,10.5 13.2,9.85L14,4.55C14.05,4.15 13.95,3.75 13.7,3.45C13.45,3.15 13.1,3 12.7,3L4.5,3C4.2,3 4,3.2 4,3.5C4,3.8 4.2,4 4.5,4L12.7,4C12.8,4 12.9,4.05 12.95,4.1C13,4.15 13.05,4.25 13,4.4L12.25,9.65C12.25,9.8 12.05,9.95 11.85,9.95L11.25,9.95L11.2,9.95L4.25,9.95C4.05,9.95 3.85,9.7 3.85,9.5L3,3.7Z " /><path id="路径 2" fill-rule="evenodd" style="fill:#383838" transform="translate(4.05 13)  rotate(0 1 1)" opacity="1" d="M1,2C1.55,2 2,1.55 2,1C2,0.45 1.55,0 1,0C0.45,0 0,0.45 0,1C0,1.55 0.45,2 1,2Z " /><path id="路径 3" fill-rule="evenodd" style="fill:#383838" transform="translate(12 13)  rotate(0 1 1)" opacity="1" d="M1,2C1.55,2 2,1.55 2,1C2,0.45 1.55,0 1,0C0.45,0 0,0.45 0,1C0,1.55 0.45,2 1,2Z " /></g></g></svg>