<svg xmlns="http://www.w3.org/2000/svg" xmlns:xlink="http://www.w3.org/1999/xlink" width="20" height="20"
     viewBox="0 0 20 20" fill="none">
    <defs>
        <rect id="path_0" x="0" y="0" width="20" height="20"/>
    </defs>
    <g opacity="1" transform="translate(0 0)  rotate(0 10 10)">
        <mask id="bg-mask-0" fill="white">
            <use xlink:href="#path_0"></use>
        </mask>
        <g mask="url(#bg-mask-0)">
            <path id="路径 1" fill-rule="evenodd" style="fill:#008B00"
                  transform="translate(1.25 1.875)  rotate(0 8.761271242968684 8.125)" opacity="1"
                  d="M6.88,16.25C7.25,16.25 7.5,16 7.5,15.63L7.5,12.75C7.5,12.31 8.19,11.88 8.75,11.88C9.31,11.88 10.06,12.31 10.06,12.75L10.06,15.63C10.06,16 10.31,16.25 10.69,16.25L14.75,16.25C15.69,16.25 16.31,15.63 16.31,14.62L16.31,7.5L16.94,7.5C17.19,7.5 17.44,7.31 17.5,7.06C17.56,6.81 17.5,6.56 17.25,6.38L9.94,0.38C9.31,-0.12 8.25,-0.12 7.63,0.38L0.25,6.44C0,6.56 -0.06,6.88 0.06,7.13C0.13,7.38 0.38,7.5 0.63,7.5L1.25,7.5L1.25,14.62C1.25,15.56 1.94,16.25 2.87,16.25L6.88,16.25Z "/>
        </g>
    </g>
</svg>