<svg xmlns="http://www.w3.org/2000/svg" xmlns:xlink="http://www.w3.org/1999/xlink" width="16" height="16" viewBox="0 0 16 16" fill="none"><defs><rect id="path_0" x="0" y="0" width="16" height="16" /></defs><g opacity="1" transform="translate(0 0)  rotate(0 8 8)"><mask id="bg-mask-0" fill="white"><use xlink:href="#path_0"></use></mask><g mask="url(#bg-mask-0)" ><path id="路径 1" fill-rule="evenodd" style="fill:#383838" transform="translate(0.5 2)  rotate(0 7.5 6.25)" opacity="1" d="M14,4C14,4.96 13.5,5.71 13.09,6.15L8.15,11.15C7.89,11.4 7.7,11.5 7.5,11.5C7.31,11.5 7.11,11.4 6.86,11.15L1.92,6.17C1.32,5.41 1,4.96 1,4C1,2.35 2.35,1 4,1C4.62,1 5.22,1.19 5.73,1.55C5.95,1.71 6.26,1.65 6.42,1.42C6.58,1.2 6.53,0.89 6.3,0.73C5.63,0.25 4.83,0 4,0C1.79,0 0,1.79 0,4C0,5.36 0.56,6.07 1.16,6.81L6.15,11.85C6.59,12.3 7.05,12.5 7.5,12.5C7.95,12.5 8.41,12.3 8.86,11.85L13.82,6.84C14.36,6.25 15,5.29 15,4C15,1.79 13.21,0 11,0C10,0 9.04,0.37 8.28,1.06L6.17,3.17C5.98,3.37 5.98,3.69 6.17,3.88C6.37,4.08 6.69,4.08 6.88,3.88L8.98,1.79C9.53,1.28 10.25,1 11,1C12.65,1 14,2.35 14,4Z " /></g></g></svg>