<svg xmlns="http://www.w3.org/2000/svg" xmlns:xlink="http://www.w3.org/1999/xlink" width="16" height="16" viewBox="0 0 16 16" fill="none"><defs><rect id="path_0" x="0" y="0" width="16" height="16" /></defs><g opacity="1" transform="translate(0 0)  rotate(0 8 8)"><mask id="bg-mask-0" fill="white"><use xlink:href="#path_0"></use></mask><g mask="url(#bg-mask-0)" ><path id="路径 1" fill-rule="evenodd" style="fill:#383838" transform="translate(1.2278874843749987 1.228974749999999)  rotate(0 6.742228260003156 6.748456546875)" opacity="1" d="M9.08,11.31C8.97,11.06 8.68,10.96 8.44,11.07C7.75,11.38 7.02,11.54 6.25,11.54C3.33,11.54 0.96,9.17 0.96,6.25C0.96,3.33 3.33,0.96 6.25,0.96C9.17,0.96 11.54,3.33 11.54,6.25C11.54,7.62 11.02,8.92 10.07,9.91C9.88,10.1 9.89,10.41 10.08,10.59C10.09,10.61 10.11,10.61 10.13,10.62C10.14,10.64 10.15,10.67 10.17,10.68L12.65,13.34C12.75,13.45 12.88,13.5 13,13.5C13.12,13.5 13.24,13.45 13.33,13.37C13.53,13.19 13.54,12.88 13.36,12.69L11.06,10.23C11.99,9.12 12.5,7.72 12.5,6.25C12.5,2.8 9.7,0 6.25,0C2.8,0 0,2.8 0,6.25C0,9.7 2.8,12.5 6.25,12.5C7.15,12.5 8.03,12.31 8.84,11.94C9.08,11.83 9.19,11.55 9.08,11.31Z " /></g></g></svg>