<svg xmlns="http://www.w3.org/2000/svg" xmlns:xlink="http://www.w3.org/1999/xlink" width="16" height="16" viewBox="0 0 16 16" fill="none"><defs><rect id="path_0" x="0" y="0" width="16" height="16" /></defs><g opacity="1" transform="translate(0 0)  rotate(0 8 8)"><mask id="bg-mask-0" fill="white"><use xlink:href="#path_0"></use></mask><g mask="url(#bg-mask-0)" ><g opacity="1" transform="translate(2.029040582042187 2.128898411843789)  rotate(0 5.961459158594005 5.868435241593623)"><path id="路径 1" fill-rule="evenodd" style="fill:#FFFFFF" transform="translate(0 0)  rotate(0 5.952979708978907 2.1905510522933422)" opacity="1" d="M0.25,2.93C0.01,3.17 -0.07,3.54 0.06,3.85C0.2,4.17 0.51,4.38 0.85,4.38L11.16,4.38C11.57,4.38 11.91,4.05 11.91,3.63C11.91,3.22 11.57,2.88 11.16,2.88L2.43,2.88L2.43,2.88L4.04,1.28C4.34,0.99 4.34,0.52 4.05,0.22C3.76,-0.07 3.28,-0.07 2.99,0.22L0.25,2.93Z " /><path id="路径 2" fill-rule="evenodd" style="fill:#FFFFFF" transform="translate(0.016959417957812306 7.3481015881562115)  rotate(0 5.952979449615099 2.1943844475155174)" opacity="1" d="M11.84,0.53C11.71,0.21 11.4,0 11.06,0L0.75,0C0.34,0 0,0.34 0,0.75C0,1.16 0.34,1.5 0.75,1.5L9.48,1.5L7.87,3.1C7.67,3.28 7.59,3.56 7.66,3.83C7.72,4.09 7.93,4.29 8.19,4.36C8.45,4.43 8.73,4.36 8.92,4.16L11.65,1.45C11.9,1.21 11.97,0.85 11.84,0.53Z " /></g></g></g></svg>